<svg width="18" height="18" viewBox="0 0 18 18" fill="none" xmlns="http://www.w3.org/2000/svg">
<path d="M9 18C13.9706 18 18 13.9706 18 9C18 4.02944 13.9706 0 9 0C4.02944 0 0 4.02944 0 9C0 13.9706 4.02944 18 9 18Z" fill="#F7931A"/>
<path d="M13.0438 7.88625C13.2204 6.70725 12.3221 6.07331 11.0948 5.65031L11.493 4.05281L10.521 3.81094L10.1329 5.36625C9.87751 5.30212 9.61538 5.2425 9.35382 5.18287L9.74476 3.61744L8.77276 3.375L8.37451 4.97194C8.16301 4.92356 7.95488 4.87631 7.75351 4.82569L7.75463 4.82062L6.41363 4.48594L6.15488 5.52431C6.15488 5.52431 6.87657 5.68969 6.86138 5.69981C7.25513 5.79825 7.32601 6.05869 7.31419 6.26569L6.86082 8.08537C6.88782 8.09212 6.92269 8.10225 6.96207 8.11744L6.85913 8.09212L6.22351 10.6414C6.17513 10.7606 6.05307 10.9401 5.77744 10.872C5.78757 10.8861 5.07094 10.6959 5.07094 10.6959L4.58832 11.8086L5.85394 12.1241C6.08907 12.1832 6.31969 12.2451 6.54638 12.303L6.14419 13.9185L7.11563 14.1604L7.51388 12.5629C7.77938 12.6343 8.03701 12.7007 8.28901 12.7637L7.89188 14.3544L8.86388 14.5963L9.26607 12.9842C10.9243 13.2981 12.1708 13.1715 12.6956 11.6719C13.1186 10.4648 12.6748 9.76781 11.8024 9.31388C12.438 9.16763 12.9161 8.74969 13.0438 7.88625ZM10.8219 11.0014C10.5221 12.2091 8.48869 11.556 7.82944 11.3923L8.36382 9.252C9.02307 9.41681 11.1364 9.7425 10.8219 11.0014ZM11.1229 7.86881C10.8489 8.96738 9.15694 8.40881 8.60851 8.27213L9.09226 6.3315C9.64069 6.46819 11.4086 6.723 11.1229 7.86881Z" fill="white"/>
</svg>
